<?xml version="1.0" encoding="iso-8859-1"?>
<!-- Generator: Adobe Illustrator 19.0.0, SVG Export Plug-In . SVG Version: 6.00 Build 0)  -->
<svg version="1.1" id="Layer_1" xmlns="http://www.w3.org/2000/svg" xmlns:xlink="http://www.w3.org/1999/xlink" x="0px" y="0px"
	 viewBox="0 0 508 508" style="enable-background:new 0 0 508 508;" xml:space="preserve">
<circle style="fill:#FD8469;" cx="254" cy="254" r="254"/>
<path style="fill:#F1543F;" d="M2.4,289.2C19.6,412.8,125.6,508,254,508s234.4-95.2,251.6-218.8H2.4z"/>
<g>
	<path style="fill:#FFD05B;" d="M220.4,205.6c40.8,16,33.6,47.2,33.6,47.2c-33.2,6.4-34.8,31.6-34.8,31.6
		c-22,9.2-71.6,30.8-71.6,30.8l-14.8-3.2c5.2-21.2-30.4-93.6-30.4-93.6c-10.8-10.4-2.4-33.6-2.4-33.6c12.4-12.8-2.4-27.6-2.4-27.6
		C78.8,148,70,126.8,70,126.8c-3.2-27.2-31.6-26.4-31.6-26.4c-3.2,30.4,14.8,72.4,14.8,72.4C75.6,200,84.4,324,84.4,324
		c-1.2,32.4,20,37.6,20,37.6c42,6,94.8-6.8,94.8-6.8c2,14,35.2,16.4,35.2,16.4c18,5.6,210.4,0,210.4,0
		c40.4-12.4,20.8-50.4,20.8-50.4c-43.2-30.8-100.4-36-100.4-36c-28.8,1.2-16.8-17.6-16.8-17.6s29.2-120-76.4-142.8
		c0,0-58.8,2.4-69.6,8.4c0,0-26.4-3.2-40,7.2c0,0-9.6-0.4-18-1.6c-8.8-1.2-17.2,3.2-20.8,11.6c-2.8,7.2-5.6,14.8-4.4,17.2
		c2,4.4-0.8,4-0.8,4l-5.2-1.2c-2-0.4-4,2-3.2,4c1.6,4.8,4.8,12.4,7.6,13.6c0,0-18,34,2.4,47.2c0,0,21.2,32.8,50.4,23.2
		c0,0-6,20,15.6,16c0,0,16.4,4,12.8,12.4c0,0,21.2,1.2,19.2-20.8c0,0,24-14-6.4-28.4L220.4,205.6z"/>
	<path style="fill:#FFD05B;" d="M444.8,371.2c0,0-192.4,5.6-210.4,0c0,0-33.2-2.4-35.2-16.4c0,0-52.8,12.8-94.8,6.8
		c0,0-21.2-5.6-20-37.6c0,0-8.8-124-31.2-151.2c0,0-18-42-14.8-72.4c0,0,28.4-0.8,31.6,26.4c0,0,9.2,21.2,27.6,30.4
		c0,0,14.8,14.8,2.4,27.6c0,0-8.4,23.2,2.4,33.6c0,0,35.6,72.4,30.4,93.6l14.8,3.2c0,0,49.6-22,71.6-30.8c0,0,0.8-12.4,12.8-22
		c5.2-4,12-7.6,22-9.6c0,0,7.2-31.2-33.6-47.2l-8.8,31.6c30.4,14.4,6.4,28.4,6.4,28.4c2,22-19.2,20.8-19.2,20.8
		c3.6-8.8-12.8-12.4-12.8-12.4c-21.2,4-15.6-16-15.6-16c-29.2,9.6-50.4-23.2-50.4-23.2c-20.8-12.8-2.4-47.2-2.4-47.2
		c-2.8-1.2-6-8.4-7.6-13.6c-0.8-2,1.2-4.4,3.2-4l5.2,0.8l0.8-4c-0.8-2,1.6-9.6,4.4-17.2c3.2-8.4,11.6-12.8,20.4-11.6
		c8.8,1.2,18,1.6,18,1.6c13.6-10.4,40-7.2,40-7.2c5.2-2.8,21.2-4.8,36.4-6l0,0c16.8-1.6,33.2-2.4,33.2-2.4
		C377.2,146.4,348,266.8,348,266.8s-3.2,4.8-2.4,9.6c0.8,4.4,4.8,8.8,19.2,8c0,0,57.6,5.2,100.4,36
		C465.6,320.8,484.8,358.8,444.8,371.2z"/>
</g>
<path style="fill:#54C0EB;" d="M348,267.2c0,0-3.2,4.8-2.4,9.6c0,0-18.4-45.6-62.4,6.8c0,0-18.8,12.8-14,44.8l-9.6,4
	c0,0-35.2-13.2-31.6-43.6c0,0-0.8-14.4,4-26.4c2.8-6.8,7.2-13.2,14.4-15.6l-26-41.2l-2.4-16.4v-2c-8.8-9.6-22-30.4,1.6-51.6
	c0,0,8-4.4,18.8-9.2l0,0c16.8-1.6,33.2-2.4,33.2-2.4C377.2,146.8,348,267.2,348,267.2z"/>
<path style="fill:#F9B54C;" d="M269.6,328.4c0,0,14.8,17.6,55.6,21.2c0,0,60,1.2,74.4-4.8c0,0,34.8-6.4,45.2,6.8
	c0,0-22-9.2-42.4-3.2c0,0-70.4,14-113.2-1.6c0,0-10.8-11.2-23.6-9.2c0,0-11.6,10.4-20,8.4c0,0-20.8-3.2-27.2,1.6
	c0,0-13.2-0.8-18.4,7.6c0,0-0.4-9.2,16.8-12c0,0,40-0.4,36-14.4l7.6,4L269.6,328.4z"/>
<path style="fill:#E6E9EE;" d="M314,322.4c0,0,15.2,53.6,34,62c0,0-1.6,8-10.8,4c0,0,0,7.2,8.8,10.4c0,0,1.2,10-15.2,2
	c-1.6-0.8-9.6-5.6-9.6-10c0,0,0.8,18.8-7.6,16.4c0,0-6.4-6.4-4-16.8c0,0-11.2,18-18.4,13.2c0,0-6.8-0.8-2-6.8c0,0-13.6,6.4-16.8,4.4
	c0,0-4-4.8,9.2-12c0.4-0.4,1.2-0.8,2-0.8c15.6-7.6,5.2-62.4,5.2-62.4L314,322.4z"/>
<path style="fill:#84DBFF;" d="M264.8,166c0,0,22.8-12.4,10.8-40.8c-1.2-0.4-2.8-0.8-4-0.8c0,0-16,0.8-33.2,2.4l0,0
	c-10.8,5.2-18.8,9.2-18.8,9.2c-29.6,26-2.4,51.6,2.8,56c2,0.4,3.6,0.4,3.6,0.4l0,0l0,0c8.4,2.8,62,140,62,140
	c13.2-9.6,29.2-9.6,29.2-9.6C316.4,309.2,279.2,206,264.8,166z"/>
<path style="fill:#324A5E;" d="M139.6,230.8c0,0-20-0.4-28-8c1.2,4.4,4,8.8,8.8,11.6c0,0,21.2,32.8,50.4,23.2c0,0-6,20,15.6,16
	c0,0,16.4,4,12.8,12.4c0,0,21.2,1.2,19.2-20.8c0,0,24-14-6.4-28.4l8-29.6c-2.8-9.6-8.8-24-20-33.6c0,0,0.4,6-0.4,12.8
	c-2.8,20.8-32.4,22.8-37.2,2.4v-0.4c0,0-5.2,12.8,0,18C162,206.4,142,210,139.6,230.8z"/>
<g>
</g>
<g>
</g>
<g>
</g>
<g>
</g>
<g>
</g>
<g>
</g>
<g>
</g>
<g>
</g>
<g>
</g>
<g>
</g>
<g>
</g>
<g>
</g>
<g>
</g>
<g>
</g>
<g>
</g>
</svg>
