<?xml version="1.0" encoding="iso-8859-1"?>
<!-- Generator: Adobe Illustrator 19.0.0, SVG Export Plug-In . SVG Version: 6.00 Build 0)  -->
<svg version="1.1" id="Capa_1" xmlns="http://www.w3.org/2000/svg" xmlns:xlink="http://www.w3.org/1999/xlink" x="0px" y="0px"
	 viewBox="0 0 480 480" style="enable-background:new 0 0 480 480;" xml:space="preserve">
<g>
	<polygon style="fill:#BF515A;" points="274.286,81.905 306.667,81.905 295.238,62.857 306.667,43.81 264.762,43.81 274.286,51.428 
			"/>
	<path style="fill:#E17277;" d="M217.143,259.453v68.166H240v-55.238C230.298,272.381,221.809,267.199,217.143,259.453z"/>
	<path style="fill:#BF515A;" d="M262.857,259.453c-4.666,7.746-13.156,12.928-22.857,12.928v55.238h22.857V259.453z"/>
	<path style="fill:#BF515A;" d="M346.667,272.381c-14.727,0-26.667-11.939-26.667-26.667c0,9.06-4.522,17.06-11.429,21.879v60.026
		h22.857v116.19h22.857V271.27C351.871,271.989,349.315,272.381,346.667,272.381z"/>
	<path style="fill:#BF515A;" d="M426.667,245.714c0,14.728-11.939,26.667-26.667,26.667V443.81h45.714V271.27
		C434.7,267.991,426.667,257.793,426.667,245.714z"/>
	<path style="fill:#E9A868;" d="M266.667,245.714c0,5.026-1.392,9.726-3.809,13.739v68.166h22.857h22.857v-60.026
		c-4.32,3.015-9.571,4.788-15.238,4.788C278.606,272.381,266.667,260.442,266.667,245.714z"/>
	<path style="fill:#E9A868;" d="M373.333,245.714c0,12.079-8.034,22.277-19.048,25.556V443.81H400V272.381
		C385.273,272.381,373.333,260.442,373.333,245.714z"/>
	<path style="fill:#E17277;" d="M53.333,245.714c0,12.079-8.034,22.277-19.048,25.556V443.81H80V272.381
		C65.273,272.381,53.333,260.442,53.333,245.714z"/>
	<path style="fill:#F2D057;" d="M106.667,245.714c0,14.728-11.939,26.667-26.667,26.667V443.81h45.714V271.27
		C114.7,267.991,106.667,257.793,106.667,245.714z"/>
	<path style="fill:#E17277;" d="M171.429,327.619v-60.026C164.522,262.774,160,254.774,160,245.714
		c0,14.728-11.939,26.667-26.667,26.667c-2.648,0-5.204-0.392-7.619-1.111V443.81h22.857v-116.19H171.429z"/>
	<path style="fill:#F2D057;" d="M217.143,259.453c-2.417-4.013-3.81-8.713-3.81-13.739c0,14.728-11.939,26.667-26.667,26.667
		c-5.667,0-10.918-1.773-15.238-4.788v60.026h22.857h22.857V259.453z"/>
	<path style="fill:#695A69;" d="M308.571,350.476c-12.624,0-22.857-10.233-22.857-22.857c0,12.624-10.234,22.857-22.857,22.857
		c-12.624,0-22.857-10.233-22.857-22.857c0,12.624-10.234,22.857-22.857,22.857c-12.624,0-22.857-10.233-22.857-22.857
		c0,12.624-10.234,22.857-22.857,22.857s-22.857-10.233-22.857-22.857v116.19h22.857h45.714h45.714h45.714h22.857v-116.19
		C331.429,340.243,321.195,350.476,308.571,350.476z"/>
	<path style="fill:#E9A868;" d="M53.333,245.714H34.286H0c0,14.728,11.939,26.667,26.667,26.667c2.648,0,5.204-0.392,7.619-1.111
		C45.3,267.991,53.333,257.793,53.333,245.714z"/>
	<path style="fill:#BF515A;" d="M53.333,245.714c0,14.728,11.939,26.667,26.667,26.667s26.667-11.939,26.667-26.667H80H53.333z"/>
	<path style="fill:#E9A868;" d="M106.667,245.714c0,12.079,8.034,22.277,19.048,25.556c2.415,0.719,4.971,1.111,7.619,1.111
		c14.728,0,26.667-11.939,26.667-26.667h-34.286H106.667z"/>
	<path style="fill:#BF515A;" d="M213.333,245.714h-41.905H160c0,9.06,4.522,17.06,11.429,21.879
		c4.32,3.015,9.571,4.788,15.238,4.788C201.394,272.381,213.333,260.442,213.333,245.714z"/>
	<path style="fill:#E9A868;" d="M148.571,327.619c0,12.624,10.234,22.857,22.857,22.857s22.857-10.233,22.857-22.857h-22.857
		H148.571z"/>
	<path style="fill:#BF515A;" d="M194.286,327.619c0,12.624,10.234,22.857,22.857,22.857c12.624,0,22.857-10.233,22.857-22.857
		h-22.857H194.286z"/>
	<path style="fill:#D6805C;" d="M240,327.619c0,12.624,10.234,22.857,22.857,22.857c12.624,0,22.857-10.233,22.857-22.857h-22.857
		H240z"/>
	<path style="fill:#944851;" d="M308.571,350.476c12.624,0,22.857-10.233,22.857-22.857h-22.857h-22.857
		C285.714,340.243,295.948,350.476,308.571,350.476z"/>
	<path style="fill:#E9A868;" d="M213.333,245.714c0,5.026,1.392,9.726,3.81,13.739c4.666,7.746,13.156,12.928,22.857,12.928v-26.667
		h-22.857H213.333z"/>
	<path style="fill:#944851;" d="M266.667,245.714c0,14.728,11.939,26.667,26.667,26.667c5.667,0,10.918-1.773,15.238-4.788
		c6.906-4.819,11.429-12.819,11.429-21.879h-11.429H266.667z"/>
	<path style="fill:#D6805C;" d="M320,245.714c0,14.728,11.939,26.667,26.667,26.667c2.648,0,5.204-0.392,7.619-1.111
		c11.014-3.279,19.048-13.477,19.048-25.556h-19.048H320z"/>
	<path style="fill:#944851;" d="M373.333,245.714c0,14.728,11.939,26.667,26.667,26.667s26.667-11.939,26.667-26.667H400H373.333z"
		/>
	<path style="fill:#D6805C;" d="M445.714,245.714h-19.048c0,12.079,8.034,22.277,19.048,25.556c2.415,0.719,4.971,1.111,7.619,1.111
		c14.728,0,26.667-11.939,26.667-26.667H445.714z"/>
	<path style="fill:#D6805C;" d="M262.857,259.453c2.417-4.013,3.809-8.713,3.809-13.739h-3.809H240v26.667
		C249.702,272.381,258.191,267.199,262.857,259.453z"/>
	<path style="fill:#F2D057;" d="M53.333,245.714c10.299,0,123.849-43.219,185.389-135.238h-0.365
		C159.234,202.495,13.242,245.714,0,245.714h34.286H53.333z"/>
	<path style="fill:#E9A868;" d="M426.666,245.714H240v0h22.857h3.809h41.905H320h34.286h19.048H400L426.666,245.714l19.048,0H480
		c-13.242,0-159.234-43.219-238.358-135.238h-0.365C302.818,202.495,416.367,245.714,426.666,245.714z"/>
	<path style="fill:#E17277;" d="M239.088,110.476h-0.365c-61.54,92.019-175.09,135.238-185.389,135.238H80h26.667
		C114.023,245.714,195.13,202.495,239.088,110.476z"/>
	<path style="fill:#F2D057;" d="M239.453,110.476h-0.365c-43.958,92.019-125.064,135.238-132.421,135.238h19.048H160
		C164.414,245.714,213.078,202.495,239.453,110.476z"/>
	<path style="fill:#E17277;" d="M213.333,245.714c1.471,0,17.693-43.219,26.484-135.238h-0.365
		C213.078,202.495,164.414,245.714,160,245.714h11.429H213.333z"/>
	<path style="fill:#F2D057;" d="M213.333,245.714h3.81H240v0h0v0h0v0h-0.001v-0.001h-0.001V110.476h-0.18
		C231.026,202.495,214.805,245.714,213.333,245.714z"/>
	<path style="fill:#BF515A;" d="M373.333,245.713H240v0h0h186.666c-10.299,0-123.849-43.219-185.389-135.238h-0.365
		C284.869,202.494,365.976,245.713,373.333,245.713z"/>
	<path style="fill:#E9A868;" d="M319.999,245.713h-79.999v0h0h133.333c-7.357,0-88.463-43.219-132.421-135.237h-0.366
		C266.921,202.494,315.585,245.713,319.999,245.713z"/>
	<path style="fill:#BF515A;" d="M266.664,245.712h-26.666v0.001h0.001h79.999c-4.414,0-53.078-43.219-79.452-135.237h-0.366
		C248.972,202.493,265.193,245.712,266.664,245.712z"/>
	<path style="fill:#E9A868;" d="M239.999,245.712h26.666c-1.471,0-17.692-43.219-26.484-135.236h-0.183v135.236H239.999z"/>
	<path style="fill:#695A69;" d="M239.088,110.476h0.365h0.365h0.18h0.183h0.366h0.366h0.365h0.365h0.263V89.524V51.428v-4.142
		c-0.597,0.211-1.236,0.332-1.905,0.332s-1.308-0.121-1.905-0.332v63.189h0.263h0.365H239.088z"/>
	<path style="fill:#E17277;" d="M241.905,47.287c2.218-0.785,3.809-2.895,3.809-5.382c0-3.156-2.558-5.714-5.714-5.714
		s-5.714,2.558-5.714,5.714c0,2.487,1.592,4.597,3.81,5.382c0.596,0.211,1.236,0.332,1.905,0.332S241.308,47.498,241.905,47.287z"/>
	<polygon style="fill:#E17277;" points="274.286,89.524 274.286,81.905 274.286,51.428 264.762,51.428 241.905,51.428 
		241.905,89.524 	"/>
	<polygon style="fill:#944851;" points="264.762,43.81 264.762,51.428 274.286,51.428 	"/>
</g>
<g>
</g>
<g>
</g>
<g>
</g>
<g>
</g>
<g>
</g>
<g>
</g>
<g>
</g>
<g>
</g>
<g>
</g>
<g>
</g>
<g>
</g>
<g>
</g>
<g>
</g>
<g>
</g>
<g>
</g>
</svg>
