<?xml version="1.0" encoding="iso-8859-1"?>
<!-- Generator: Adobe Illustrator 19.0.0, SVG Export Plug-In . SVG Version: 6.00 Build 0)  -->
<svg version="1.1" id="Layer_1" xmlns="http://www.w3.org/2000/svg" xmlns:xlink="http://www.w3.org/1999/xlink" x="0px" y="0px"
	 viewBox="0 0 443.468 443.468" style="enable-background:new 0 0 443.468 443.468;" xml:space="preserve">
<g>
	<path style="fill:#4D4D4D;" d="M291.724,70v111h-140V70c0-38.16,30.53-69.19,68.5-69.98c0.5-0.01,1-0.02,1.5-0.02s1,0.01,1.5,0.02
		c18.73,0.39,35.66,8.15,48,20.48C283.884,33.17,291.724,50.67,291.724,70z"/>
	<g>
		<path style="fill:#ED4551;" d="M165.062,136.661L165.062,136.661c-10.674-10.674-10.674-27.981,0-38.655l0,0l0,0
			C175.737,108.68,175.737,125.987,165.062,136.661L165.062,136.661z"/>
		<path style="fill:#ED4551;" d="M278.396,136.661L278.396,136.661c-10.674-10.674-10.674-27.981,0-38.655l0,0l0,0
			C289.07,108.68,289.07,125.987,278.396,136.661L278.396,136.661z"/>
	</g>
	<path style="opacity:0.29;fill:#4D4D4D;enable-background:new    ;" d="M289.294,83.813c0,33.863-24.928,53.619-57.437,56.971
		c-3.296,0.355-6.682,0.522-10.122,0.522c-3.441,0-6.826-0.178-10.133-0.522c-1.654-0.167-3.296-0.377-4.906-0.633
		c-30.078-4.761-52.532-24.196-52.532-56.339c0-7.825,1.332-15.927,3.785-23.852c13.53-20.888,37.038-34.707,63.775-34.707
		c26.76,0,50.278,13.829,63.797,34.74C287.974,67.908,289.294,75.999,289.294,83.813z"/>
	<path style="fill:#EAB87D;" d="M323.934,245.57c0.13,8.6-0.8,16.97-2.67,24.97c-0.66,2.81-4.79,2.34-4.79-0.55v-0.22
		c0-11.01-1.88-21.58-5.34-31.41c-7.67-21.86-23.15-40.06-43.08-51.25c-13.69-7.69-29.5-12.08-46.32-12.08
		c-9.33,0-18.35,1.35-26.86,3.87l0.738,1.64c-6.83,2.01-13.313,3.901-20.168,6.56l-0.03,0.01c-28.9,16.22-48.43,47.16-48.43,82.66
		v0.22c0.01,2.88-4.11,3.42-4.77,0.61c-1.76-7.52-2.7-15.36-2.7-23.42c0-47.29,32.13-87.09,75.75-98.74
		c1.92-0.53,3.87-0.99,5.84-1.39c0.78-0.16,1.54-0.38,2.27-0.66c4.6-1.75,8.07-5.74,9.1-10.66l0.13-0.64
		c2.98,0.31,6.03,0.47,9.13,0.47s6.15-0.15,9.12-0.47l0.16,0.76c1.02,4.88,4.44,8.84,8.99,10.61c0.72,0.29,1.48,0.52,2.26,0.69
		c1.95,0.42,3.88,0.9,5.79,1.44c3.53,0.98,6.98,2.16,10.36,3.51c33.46,13.42,59.04,44.39,64.46,80.65
		C323.504,236.96,323.864,241.24,323.934,245.57z"/>
	<path style="fill:#D84154;" d="M210.284,437.69c-0.15,0.93-0.3,1.82-0.44,2.67c-0.6,3.65-5.6,4.27-7.07,0.87
		c-0.67-1.55-1.33-3.1-1.97-4.65C203.954,437.07,207.114,437.44,210.284,437.69z"/>
	<path style="fill:#D84154;" d="M242.664,436.58c-0.64,1.55-1.3,3.1-1.97,4.65c-1.47,3.4-6.47,2.78-7.08-0.87
		c-0.14-0.85-0.29-1.74-0.44-2.67C236.344,437.44,239.514,437.07,242.664,436.58z"/>
	<path style="opacity:0.29;fill:#4D4D4D;enable-background:new    ;" d="M234.8,142.99c-4.07,1.53-8.337,2.356-12.937,2.356
		c-4.62,0-9.16-0.84-13.25-2.38c1.859-1.947,3.282-4.446,3.862-7.236l0.185-1.008c2.98,0.31,6.216,0.601,9.316,0.601
		c3.1,0,5.87-0.146,8.84-0.466l0.194,0.993C231.58,138.6,232.92,141.05,234.8,142.99z"/>
	<path style="fill:#D84154;" d="M180.132,153.789l21.755,22.154l-21.038,8.875c0,0,0.976-14.235-8.718-27.026L180.132,153.789z"/>
	<path style="fill:#ED4551;" d="M322.874,232.75l-1.82,0.87l-9.92,4.74c-7.67-21.86-23.15-40.06-43.08-51.25v4.91
		c0,8.79-4.86,16.44-12.03,20.43c-2.48,1.38-4.46,3.41-5.81,5.81c-1.35,2.4-2.09,5.16-2.09,8c0,1.92,0.2,3.81,0.6,5.65
		c0.23,1.07,0.52,2.12,0.88,3.14c0.73,2.14,1.73,4.18,2.98,6.07c0.17,0.25,0.33,0.5,0.51,0.74c0.3,0.44,0.62,0.86,0.95,1.28
		c0.19,0.23,0.37,0.45,0.56,0.67c0.36,0.43,0.74,0.84,1.13,1.24c0.39,0.41,0.8,0.81,1.23,1.2c3.94,3.58,7.23,7.86,9.67,12.65
		c1.31,2.57,2.38,5.27,3.16,8.1c1.06,3.78,1.62,7.76,1.62,11.88V419c-15.99,6.12-32.84,9.17-49.69,9.17
		c-16.84,0-33.68-3.05-49.68-9.17V278.88c0-12.94,5.58-24.57,14.45-32.63c4.22-3.83,7.08-8.86,8.25-14.34
		c0.4-1.84,0.6-3.74,0.6-5.65c0-5.68-2.94-11.05-7.9-13.81c-1.37-0.76-2.66-1.66-3.85-2.68h-0.01c-3.82-3.28-6.58-7.77-7.66-12.88
		c-0.34-1.57-0.51-3.2-0.51-4.87v-4.91l83-35.01c9.22,3.7,17.85,8.73,25.62,14.85h0.01
		C304.454,183.01,318.944,206.49,322.874,232.75z"/>
	<path style="fill:#FBB03B;" d="M271.414,419v10c-9.35,3.58-18.99,6.11-28.75,7.58c-3.15,0.49-6.32,0.86-9.49,1.11
		c-3.81,0.32-7.63,0.48-11.45,0.48c-3.82,0-7.63-0.16-11.44-0.48c-3.17-0.25-6.33-0.62-9.48-1.11c-9.76-1.47-19.4-4-28.76-7.58v-10
		c8,3.06,16.22,5.35,24.53,6.88c5.05,0.93,10.14,1.58,15.24,1.94c3.3,0.23,6.61,0.35,9.91,0.35c3.31,0,6.62-0.12,9.92-0.36
		c5.11-0.36,10.2-1,15.25-1.93C255.204,424.35,263.424,422.06,271.414,419z"/>
	<path style="fill:#FBB03B;" d="M266.634,258.9c-12.3,25.44-38.83,65.09-94.59,104.57v-31.18c33.28-26.14,52.63-51.1,63.38-68.51
		c7.51-12.17,11.82-22.18,14.18-28.73c0.73,2.14,1.73,4.18,2.98,6.07c0.23,0.35,0.47,0.7,0.73,1.04c1.06,1.47,2.28,2.84,3.65,4.09
		c2.06,1.87,3.94,3.94,5.62,6.17C264.114,254.45,265.474,256.62,266.634,258.9z"/>
	<path style="fill:#D84154;" d="M262.584,252.42c-12.64,25.71-38.58,64.32-90.54,103.58v-14.93c35.84-28.16,56.68-55.04,68.26-73.79
		c6.11-9.9,10.26-18.48,13.01-25.12c1.06,1.47,2.28,2.84,3.65,4.09C259.024,248.12,260.904,250.19,262.584,252.42z"/>
	<path style="opacity:0.29;fill:#4D4D4D;enable-background:new    ;" d="M269.794,267c-13.92,26.96-42.07,66.54-97.75,105.97v-9.5
		c55.76-39.48,82.29-79.13,94.59-104.57C267.944,261.47,269.014,264.17,269.794,267z"/>
	<path style="fill:#FBB03B;" d="M284.034,166.95l-100.44,42.82h-0.01c-1.45-1.25-2.75-2.67-3.85-4.23
		c-2.23-3.12-3.71-6.82-4.16-10.82c-0.11-0.89-0.16-1.79-0.16-2.7v-4.91l82.555-35.186c2.6,1.04,5.595,2.366,8.085,3.616
		c4.26,2.12,8.36,4.54,12.27,7.22C280.274,164.09,282.174,165.49,284.034,166.95z"/>
	<path style="fill:#D84154;" d="M278.324,162.76l-98.59,42.78c-2.23-3.12-3.71-6.82-4.16-10.82l90.48-39.18
		C270.55,157.675,274.414,160.08,278.324,162.76z"/>
	<g>
		<polygon style="fill:#FBB03B;" points="133.264,240.18 132.494,243.5 130.864,250.5 129.204,257.67 118.904,257.33 118.664,250.5 
			118.424,243.5 118.244,238.33 		"/>
		<polygon style="fill:#FBB03B;" points="325.224,238.33 325.044,243.5 324.794,250.5 324.554,257.33 314.264,257.67 312.604,250.5 
			310.974,243.5 310.204,240.18 		"/>
	</g>
	<path style="fill:#FBB03B;" d="M242.264,147.15c-0.78-0.17-1.54-0.4-2.26-0.69c-5.03,3.99-11.38,6.37-18.27,6.37
		c-6.93,0-13.32-2.41-18.36-6.44c-0.73,0.28-1.49,0.5-2.27,0.66c-1.97,0.4-3.92,0.86-5.84,1.39c6.66,7.01,16.06,11.39,26.47,11.39
		c10.33,0,19.67-4.31,26.32-11.24C246.144,148.05,244.214,147.57,242.264,147.15z"/>
	<circle style="fill:#ED4551;" cx="221.729" cy="156.333" r="5.25"/>
	<polygon style="fill:#ED4551;" points="118.424,243.5 132.494,243.5 130.864,250.5 118.664,250.5 	"/>
	<polygon style="fill:#ED4551;" points="325.044,243.5 324.794,250.5 312.604,250.5 310.974,243.5 	"/>
	<path style="fill:#EAB87D;" d="M282.604,83.76c0,30.51-22.46,48.31-51.75,51.33c-2.97,0.32-6.02,0.47-9.12,0.47
		c-3.1,0-6.15-0.16-9.13-0.47c-1.49-0.15-2.97-0.34-4.42-0.57c-27.1-4.29-47.33-21.8-47.33-50.76c0-7.05,1.2-14.35,3.41-21.49
		c12.19-18.82,33.37-31.27,57.46-31.27c24.11,0,45.3,12.46,57.48,31.3C281.414,69.43,282.604,76.72,282.604,83.76z"/>
	<path style="fill:#FFFFFF;" d="M233.684,81.872c0,9.697-5.352,17.558-11.954,17.558c-6.602,0-11.954-7.861-11.954-17.558H233.684z"
		/>
	<g>
		<path d="M201.38,75.334c0,0-0.303-0.04-0.778-0.17c-0.234-0.078-0.532-0.14-0.829-0.189c-0.299-0.06-0.603-0.132-0.969-0.186
			c-0.345-0.076-0.715-0.135-1.097-0.184c-0.368-0.082-0.776-0.08-1.158-0.154c-0.403-0.009-0.794-0.077-1.2-0.08
			c-0.401-0.034-0.808-0.022-1.213-0.038c-0.405,0.017-0.811,0.008-1.212,0.041c-0.406,0.007-0.797,0.069-1.199,0.082
			c-0.382,0.074-0.79,0.072-1.157,0.155c-0.382,0.048-0.751,0.107-1.096,0.183c-0.361,0.049-0.683,0.133-0.988,0.199
			c-0.309,0.06-0.594,0.111-0.817,0.178c-0.461,0.116-0.775,0.164-0.775,0.164s0.059-0.289,0.251-0.763
			c0.092-0.242,0.22-0.528,0.416-0.818c0.187-0.301,0.415-0.637,0.719-0.948c0.148-0.161,0.311-0.322,0.481-0.492
			c0.18-0.151,0.376-0.296,0.578-0.452c0.401-0.321,0.882-0.551,1.382-0.808c0.517-0.196,1.06-0.427,1.642-0.519
			c0.574-0.15,1.177-0.162,1.776-0.201c0.599,0.039,1.201,0.054,1.776,0.204c0.581,0.096,1.125,0.322,1.641,0.521
			c0.499,0.257,0.981,0.488,1.381,0.808c0.201,0.156,0.398,0.299,0.578,0.452c0.17,0.17,0.334,0.329,0.481,0.491
			c0.299,0.306,0.545,0.654,0.737,0.96c0.208,0.3,0.323,0.576,0.404,0.807C201.31,75.037,201.38,75.334,201.38,75.334z"/>
		<path d="M256.57,75.334c0,0-0.303-0.04-0.778-0.17c-0.234-0.078-0.532-0.14-0.829-0.189c-0.299-0.06-0.603-0.132-0.969-0.186
			c-0.345-0.076-0.715-0.135-1.097-0.184c-0.368-0.082-0.776-0.08-1.158-0.154c-0.403-0.009-0.794-0.077-1.2-0.08
			c-0.401-0.034-0.808-0.022-1.213-0.038c-0.405,0.017-0.811,0.008-1.212,0.041c-0.406,0.007-0.797,0.069-1.199,0.082
			c-0.382,0.074-0.79,0.073-1.157,0.155c-0.382,0.048-0.752,0.107-1.097,0.183c-0.361,0.049-0.682,0.133-0.987,0.199
			c-0.309,0.06-0.594,0.111-0.817,0.178c-0.461,0.116-0.775,0.164-0.775,0.164s0.059-0.289,0.251-0.763
			c0.092-0.242,0.22-0.528,0.416-0.818c0.187-0.301,0.415-0.637,0.719-0.948c0.148-0.161,0.311-0.322,0.481-0.492
			c0.18-0.151,0.376-0.296,0.578-0.452c0.401-0.321,0.883-0.551,1.382-0.808c0.517-0.196,1.06-0.427,1.642-0.519
			c0.574-0.15,1.177-0.162,1.776-0.201c0.599,0.039,1.201,0.054,1.775,0.204c0.581,0.096,1.125,0.322,1.641,0.521
			c0.499,0.257,0.981,0.488,1.381,0.808c0.201,0.156,0.398,0.299,0.578,0.452c0.17,0.17,0.334,0.329,0.481,0.491
			c0.299,0.306,0.545,0.654,0.737,0.96c0.208,0.3,0.323,0.576,0.404,0.807C256.5,75.037,256.57,75.334,256.57,75.334z"/>
	</g>
	<path style="fill:#ED4551;" d="M223.224,0.02v39.73h-3V0.02c0.5-0.01,1-0.02,1.5-0.02S222.724,0.01,223.224,0.02z"/>
	<circle style="fill:#ED4551;" cx="221.729" cy="43.5" r="5.25"/>
	<circle style="fill:#ED4551;" cx="221.729" cy="52.25" r="3.5"/>
</g>
<g>
</g>
<g>
</g>
<g>
</g>
<g>
</g>
<g>
</g>
<g>
</g>
<g>
</g>
<g>
</g>
<g>
</g>
<g>
</g>
<g>
</g>
<g>
</g>
<g>
</g>
<g>
</g>
<g>
</g>
</svg>
