<?xml version="1.0" encoding="iso-8859-1"?>
<!-- Generator: Adobe Illustrator 19.0.0, SVG Export Plug-In . SVG Version: 6.00 Build 0)  -->
<svg version="1.1" id="Layer_1" xmlns="http://www.w3.org/2000/svg" xmlns:xlink="http://www.w3.org/1999/xlink" x="0px" y="0px"
	 viewBox="0 0 496.2 496.2" style="enable-background:new 0 0 496.2 496.2;" xml:space="preserve">
<path style="fill:#EA4949;" d="M0,248.1C0,111.1,111.1,0,248.1,0s248.1,111.1,248.1,248.1S385.1,496.2,248.1,496.2S0,385.1,0,248.1z
	"/>
<path style="fill:#D69472;" d="M197.3,55.8c0,0-7.6,70.5-20.1,87.4c0,0-4.5,10.8-17,13c0,0-33.4-0.6-40.7,10.2
	c0,0-12.7,13.6-1.4,43.3c2.8,7.5,5.9,17.3,17.8,29.7c0,0,10.2,14.1,4.5,33.4c0,0-14.1,33.4-20.9,46.4c0,0-13.6,26.6-4,43.6
	c0,0,8.8,15.8,28.3,6.8c19.5-9.1,64.5-84.3,77-113.2c0,0,22.6-65.6,26-103.6L244,56.6L197.3,55.8z"/>
<g>
	<path style="fill:#EED8CB;" d="M160.3,156.2c0,0-33.4-0.6-40.7,10.2c0,0-12.7,13.6-1.4,43.3c2.8,7.5,5.9,17.3,17.8,29.7
		c0,0,10.2,14.1,4.5,33.4c0,0-14.1,33.4-20.9,46.4c0,0-13.6,26.6-4,43.6c0,0,8.8,15.8,28.3,6.8c12.9-6,36.9-40.9,55.3-72.2
		C208.6,281.3,172.7,154,160.3,156.2z"/>
	<path style="fill:#EED8CB;" d="M188.8,245.1c14.1,0,29.9-4,37.7-6.2c-3.3,10.6-5.7,17.5-5.7,17.5c-0.1,0.2-0.2,0.3-0.2,0.5
		c-14.6,3.2-32.2,5.6-32.2,5.6L188.8,245.1z"/>
	<path style="fill:#EED8CB;" d="M173.1,202.6l-0.8-14.4c36.5-0.3,54.2,18.8,60.9,28.5c-1.7,6-3.4,11.7-5,16.8
		C208.4,205.5,173.1,202.6,173.1,202.6z"/>
</g>
<path style="fill:#DBB7A5;" d="M160.3,156.2c0,0-1.7,0-4.5,0.1c0,0,13.6,20.9,26.6,64.2c12.2,40.7,14.4,81,14.4,81
	c0.8-1.4,1.6-2.7,2.4-4.1C208.6,281.3,172.7,154,160.3,156.2z"/>
<path style="fill:#EED8CB;" d="M354.1,251c5.7,15.1,10.3,30.2,12.2,43.4c0,0,26.3,132.5-4.2,142.6c-19.6,6.5-29.6-0.5-38.2-8.5
	c0,0-20.4-17.8-27.2-54.3c0,0-10.2-37.3-10.2-73c0,0-6.8-40.7-5.9-57.7C280.5,243.4,338.7,210.5,354.1,251z"/>
<path style="fill:#DFA17C;" d="M366.2,294.3c0,0,2.1,34.6-12.3,50.1c-5.2,5.6-24,8.1-31.4,4.7c-27-12.5-42.4-98.6-42-105.7
	c0,0-22.9-62-31.4-77.2c0,0-51.2-100.4-72.8-155.6C199.1,3.7,223.1,0,248.1,0c10.8,0,21.4,0.7,31.8,2
	c6.5,37.5,25.6,145.3,35.4,168.3C315.3,170.4,359.5,245.9,366.2,294.3z"/>
<path style="fill:#DBB7A5;" d="M322.5,349.1c7.4,3.4,26.2,0.9,31.4-4.7c14.4-15.5,12.3-50.1,12.3-50.1s10.8,39.6-14.1,58.9
	c0,0-20.9,10.8-36.2,0c-24.4-17.2-36.2-92.8-35.4-109.8C280.2,250.5,295.5,336.6,322.5,349.1z"/>
<g>
	<path style="fill:#C1C0BB;" d="M121.8,186.5c3,4.7,15.9,33.1,12.4,51.1c-10.5-11.6-13.4-20.8-16.1-27.9c-4.1-10.7-5-19.3-4.6-26
		C115.2,182.7,118.8,181.8,121.8,186.5z"/>
	<path style="fill:#C1C0BB;" d="M114.1,334c2.2-8.5,5.4-14.8,5.4-14.8c0.7-1.3,1.4-2.8,2.2-4.5c4.8-9.9,11.5-25.3,15.5-34.4
		c2,1.6,5,5.5,0.7,13.1c0,0-11.5,25.5-14,30.6c0,0-6.2,13.9-11.7,21.4C112.4,341.5,113.2,337.6,114.1,334z"/>
</g>
<path style="fill:#E0CEC6;" d="M356.5,257.4c2.8,7.8,5.2,15.5,7,22.9c-15.9,11-52.1,28-65.3,34.1c-1.9-4.9-3.7-9.9-5.4-15.1
	C328,286.3,348.5,266.4,356.5,257.4z"/>
<path style="fill:#EED8CB;" d="M365.6,290.4c-16.8-4.7-64.4-14.5-80-17.7c-1-4.2-1.8-8.2-2.5-11.8l77.9,10.3
	C362.9,277.8,364.5,284.3,365.6,290.4z"/>
<g>
</g>
<g>
</g>
<g>
</g>
<g>
</g>
<g>
</g>
<g>
</g>
<g>
</g>
<g>
</g>
<g>
</g>
<g>
</g>
<g>
</g>
<g>
</g>
<g>
</g>
<g>
</g>
<g>
</g>
</svg>
