<?xml version="1.0" encoding="iso-8859-1"?>
<!-- Generator: Adobe Illustrator 19.0.0, SVG Export Plug-In . SVG Version: 6.00 Build 0)  -->
<svg version="1.1" id="Layer_1" xmlns="http://www.w3.org/2000/svg" xmlns:xlink="http://www.w3.org/1999/xlink" x="0px" y="0px"
	 viewBox="0 0 513.472 513.472" style="enable-background:new 0 0 513.472 513.472;" xml:space="preserve">
<ellipse style="fill:#FF6600;" cx="256.736" cy="256.72" rx="88.544" ry="88.816"/>
<path style="fill:#22ACDD;" d="M256.736,438.8c-100.096,0-181.552-81.68-181.552-182.08S156.64,74.64,256.736,74.64
	s181.552,81.68,181.552,182.08S356.832,438.8,256.736,438.8z M256.736,98.192c-87.104,0-158,71.12-158,158.528
	s70.896,158.528,158,158.528s158-71.12,158-158.528S343.84,98.192,256.736,98.192z"/>
<path style="fill:#FF6600;" d="M256.736,513.472c-141.152,0-256-115.168-256-256.752C0.736,115.168,115.584,0,256.736,0
	s256,115.168,256,256.72C512.736,398.304,397.888,513.472,256.736,513.472z M256.736,23.552
	c-128.16,0-232.448,104.608-232.448,233.168c0,128.592,104.288,233.2,232.448,233.2s232.448-104.608,232.448-233.2
	C489.184,128.16,384.896,23.552,256.736,23.552z"/>
<g>
</g>
<g>
</g>
<g>
</g>
<g>
</g>
<g>
</g>
<g>
</g>
<g>
</g>
<g>
</g>
<g>
</g>
<g>
</g>
<g>
</g>
<g>
</g>
<g>
</g>
<g>
</g>
<g>
</g>
</svg>
