<?xml version="1.0" encoding="iso-8859-1"?>
<!-- Generator: Adobe Illustrator 19.0.0, SVG Export Plug-In . SVG Version: 6.00 Build 0)  -->
<svg version="1.1" id="Capa_1" xmlns="http://www.w3.org/2000/svg" xmlns:xlink="http://www.w3.org/1999/xlink" x="0px" y="0px"
	 viewBox="0 0 512 512" style="enable-background:new 0 0 512 512;" xml:space="preserve">
<circle style="fill:#E25F3F;" cx="256" cy="256" r="256"/>
<path style="fill:#BF2717;" d="M368.106,47c-6.366,0-216.645,0-222.462,0v46.39h29.521c0,55.304-19.237,102.305-52.782,138.842
	c-20.82,22.677-33.145,50.797-33.145,81.257c-0.001,10.276,1.467,20.484,4.077,29.937c5.758,20.828,17.406,39.843,33.433,55.85
	l-0.016,0.016l48.432,48.432V474l0,0l33.642,33.642C224.105,510.493,239.876,512,256,512c141.385,0,256-114.615,256-256
	c0-26.777-4.119-52.59-11.744-76.85L368.106,47z"/>
<rect x="175.16" y="401.25" style="fill:#DF871E;" width="163.42" height="72.75"/>
<rect x="256" y="401.25" style="fill:#7E4F1F;" width="82.58" height="72.75"/>
<path style="fill:#EDA637;" d="M391.367,232.233c-33.933-36.959-52.782-85.306-52.782-135.48V64.631h-163.42v32.123
	c0,50.212-18.823,98.491-52.782,135.478c-20.82,22.677-33.145,50.797-33.145,81.257c0,75.174,75.054,136.114,167.637,136.114
	C395.8,449.603,472.743,320.865,391.367,232.233z"/>
<path style="fill:#A16125;" d="M391.367,232.233c-33.933-36.959-52.782-85.305-52.782-135.478V64.631H256v384.963
	c0.292,0.001,0.583,0.009,0.875,0.009C395.8,449.603,472.743,320.865,391.367,232.233z"/>
<rect x="145.64" y="47" style="fill:#F4C479;" width="222.46" height="46.39"/>
<rect x="256" y="47" style="fill:#EA971E;" width="112.11" height="46.39"/>
<path style="fill:#FFFFFF;" d="M89.238,313.489c0,11.636,1.802,22.929,5.185,33.71h324.903c3.658-11.656,5.47-23.913,5.148-36.596
	H89.276C89.251,311.562,89.238,312.524,89.238,313.489z"/>
<path style="fill:#BDAC92;" d="M424.475,310.602H256v36.596h163.327C423.809,332.913,424.475,322.43,424.475,310.602z"/>
<g>
</g>
<g>
</g>
<g>
</g>
<g>
</g>
<g>
</g>
<g>
</g>
<g>
</g>
<g>
</g>
<g>
</g>
<g>
</g>
<g>
</g>
<g>
</g>
<g>
</g>
<g>
</g>
<g>
</g>
</svg>
